<svg width="151" height="32" viewBox="0 0 151 32" fill="none" xmlns="http://www.w3.org/2000/svg">
<path d="M38.574 20.294C38.574 20.294 38.6253 17.9693 38.728 13.32C38.728 11.472 38.618 10.284 38.398 9.756L37.32 8.084L37.386 7.754C38.4273 7.51933 39.9233 7.402 41.874 7.402C42.1527 7.82733 42.292 8.61933 42.292 9.778C42.292 10.922 42.2187 12.4693 42.072 14.42C41.9253 16.356 41.852 17.852 41.852 18.908C41.852 19.964 42.1013 20.492 42.6 20.492C42.8933 20.492 43.3187 20.2573 43.876 19.788C44.4333 19.304 44.91 18.7833 45.306 18.226C45.6287 14.9113 45.79 12.6747 45.79 11.516C45.79 10.3573 45.6287 9.27933 45.306 8.282C46.0833 7.886 47.3593 7.58533 49.134 7.38C49.2953 7.908 49.376 8.656 49.376 9.624C49.376 10.5773 49.222 12.242 48.914 14.618C48.6207 16.994 48.474 18.5707 48.474 19.348C48.474 20.1107 48.694 20.492 49.134 20.492C49.5887 20.492 50.1973 20.0667 50.96 19.216C51.7227 18.3653 52.4193 17.3093 53.05 16.048C53.6953 14.772 54.0547 13.6207 54.128 12.594L51.796 11.23C51.8987 10.35 52.104 9.59467 52.412 8.964C52.7347 8.31867 53.028 7.89333 53.292 7.688L53.688 7.38C54.5827 7.38 55.2647 7.61467 55.734 8.084C56.218 8.53867 56.46 9.08133 56.46 9.712C56.46 10.9 56.1593 12.286 55.558 13.87C54.9713 15.454 54.238 16.9353 53.358 18.314C52.4927 19.6927 51.5027 20.866 50.388 21.834C49.2733 22.7873 48.2467 23.264 47.308 23.264C46.7507 23.264 46.252 23 45.812 22.472C45.3867 21.944 45.1667 21.2693 45.152 20.448C44.5067 21.328 43.8247 22.0173 43.106 22.516C42.3873 23.0147 41.698 23.264 41.038 23.264C40.378 23.264 39.7987 22.9927 39.3 22.45C38.816 21.8927 38.574 21.174 38.574 20.294ZM58.8277 8.48C58.8277 7.996 58.7838 7.65133 58.6958 7.446C59.8398 7.05 60.9178 6.852 61.9298 6.852C62.0618 6.984 62.1278 7.32133 62.1278 7.864C62.1278 8.832 61.7171 11.0613 60.8958 14.552C62.0838 13.6867 63.1251 13.254 64.0198 13.254C64.5771 13.254 64.9951 13.43 65.2738 13.782C65.5671 14.134 65.7138 14.6033 65.7138 15.19C65.7138 15.762 65.5451 16.708 65.2078 18.028C64.8704 19.3333 64.7018 20.228 64.7018 20.712C64.7018 21.196 64.7604 21.438 64.8778 21.438C64.9951 21.438 65.3031 21.306 65.8018 21.042L66.0658 20.91L66.4618 21.68C66.3298 21.7973 66.1538 21.944 65.9338 22.12C65.7138 22.296 65.3104 22.5307 64.7238 22.824C64.1371 23.1173 63.5944 23.264 63.0958 23.264C62.6118 23.264 62.2231 23.11 61.9298 22.802C61.6364 22.4793 61.4898 22.054 61.4898 21.526C61.4898 20.9833 61.6511 20.008 61.9738 18.6C62.3111 17.1773 62.4798 16.2827 62.4798 15.916C62.4798 15.5347 62.3258 15.344 62.0178 15.344C61.6364 15.344 61.1598 15.5053 60.5878 15.828C59.7811 19.3773 59.3778 21.68 59.3778 22.736C58.7618 22.9707 57.7131 23.088 56.2318 23.088C56.2171 22.8387 56.2098 22.6187 56.2098 22.428C56.2098 21.7973 56.6424 19.6413 57.5078 15.96C58.3878 12.2787 58.8277 9.78533 58.8277 8.48ZM70.2478 23.264C69.2358 23.264 68.4438 22.912 67.8718 22.208C67.2998 21.4893 67.0138 20.492 67.0138 19.216C67.0138 17.588 67.4465 16.1873 68.3118 15.014C69.1918 13.8407 70.4018 13.254 71.9418 13.254L72.7338 13.298C72.9831 13.166 73.2618 13.1 73.5698 13.1C74.7285 13.1 75.3078 14.1927 75.3078 16.378C75.9091 16.3487 76.5178 16.268 77.1338 16.136L77.4858 16.048L77.6178 16.906C77.1338 17.1113 76.4811 17.2947 75.6598 17.456L75.2198 17.544C74.9411 19.084 74.3765 20.426 73.5258 21.57C72.6751 22.6993 71.5825 23.264 70.2478 23.264ZM71.4358 21.372C72.0518 21.372 72.6018 20.976 73.0858 20.184C73.5845 19.392 73.9291 18.556 74.1198 17.676C72.5505 17.676 71.7658 17.0893 71.7658 15.916C71.7658 15.4467 71.8611 15.0067 72.0518 14.596L72.1618 14.376C72.1031 14.3467 72.0298 14.332 71.9418 14.332C71.8538 14.332 71.7878 14.3467 71.7438 14.376C71.3771 14.6107 71.0325 15.1607 70.7098 16.026C70.3871 16.8913 70.2258 17.8813 70.2258 18.996C70.2258 20.58 70.6291 21.372 71.4358 21.372ZM92.8898 23.264C92.3471 23.264 91.9071 23.0733 91.5698 22.692C91.2324 22.296 91.0638 21.768 91.0638 21.108C91.0638 20.4333 91.3644 18.7687 91.9658 16.114C92.5818 13.4593 92.8898 11.7653 92.8898 11.032C92.8898 10.2987 92.6038 9.932 92.0318 9.932C91.2398 9.932 90.3671 10.284 89.4138 10.988C89.3111 11.78 89.0104 13.166 88.5118 15.146C88.0131 17.1113 87.6758 18.5707 87.4998 19.524C87.3384 20.4627 87.2578 21.1887 87.2578 21.702C87.2578 22.2153 87.2651 22.5307 87.2798 22.648C86.7078 22.9413 85.6884 23.088 84.2218 23.088H83.8038C83.8038 21.856 84.1484 19.7587 84.8378 16.796C85.5418 13.7747 85.8938 11.8753 85.8938 11.098C85.8938 10.3207 85.6224 9.932 85.0798 9.932C84.2878 9.932 83.3638 10.3133 82.3078 11.076C82.1464 11.8827 81.8458 13.1953 81.4058 15.014C80.4231 19.1793 79.9318 21.724 79.9318 22.648C79.3598 22.9413 78.3478 23.088 76.8958 23.088H76.4778C76.5364 22.428 76.9251 20.492 77.6438 17.28C78.3624 14.0533 78.8098 11.6407 78.9858 10.042C78.9858 9.80733 78.9051 9.52867 78.7438 9.206C78.5971 8.86867 78.4431 8.59733 78.2818 8.392L78.0618 8.084L78.1278 7.754C78.9491 7.50467 80.3644 7.38 82.3738 7.38C82.5644 7.732 82.6598 8.17933 82.6598 8.722C82.6598 8.83933 82.6304 9.14733 82.5718 9.646C84.2584 8.13533 85.7691 7.38 87.1038 7.38C87.7051 7.38 88.2111 7.58533 88.6218 7.996C89.0324 8.40667 89.2964 8.942 89.4138 9.602C91.1591 8.12067 92.6404 7.38 93.8578 7.38C94.6204 7.38 95.2364 7.62933 95.7058 8.128C96.1751 8.62667 96.4098 9.32333 96.4098 10.218C96.4098 11.1127 96.0944 12.8213 95.4638 15.344C94.8478 17.852 94.5398 19.6047 94.5398 20.602C94.5398 21.0273 94.6131 21.24 94.7598 21.24C94.8918 21.24 95.2511 21.0933 95.8378 20.8L96.1458 20.668L96.5858 21.482C95.9551 22.0247 95.3171 22.4573 94.6718 22.78C94.0411 23.1027 93.4471 23.264 92.8898 23.264ZM80.5258 14.42C80.5111 14.4493 80.5038 14.486 80.5038 14.53L80.5258 14.42ZM97.4158 19.194C97.4158 17.3607 97.9658 15.916 99.0658 14.86C100.18 13.7893 101.442 13.254 102.85 13.254C103.715 13.254 104.426 13.4667 104.984 13.892C105.541 14.3173 105.82 14.8893 105.82 15.608C105.82 16.312 105.636 16.906 105.27 17.39C104.918 17.874 104.485 18.248 103.972 18.512C102.93 19.0253 101.977 19.348 101.112 19.48L100.584 19.546C100.686 20.9247 101.251 21.614 102.278 21.614C102.63 21.614 103.004 21.526 103.4 21.35C103.796 21.174 104.104 20.998 104.324 20.822L104.654 20.558L105.182 21.262C105.064 21.4233 104.83 21.636 104.478 21.9C104.126 22.164 103.796 22.384 103.488 22.56C102.637 23.0293 101.706 23.264 100.694 23.264C99.6818 23.264 98.8824 22.9047 98.2957 22.186C97.7091 21.4673 97.4158 20.47 97.4158 19.194ZM100.562 18.468C101.31 18.336 101.904 18.0207 102.344 17.522C102.784 17.0233 103.004 16.378 103.004 15.586C103.004 14.794 102.769 14.398 102.3 14.398C101.742 14.398 101.31 14.8747 101.002 15.828C100.708 16.7667 100.562 17.6467 100.562 18.468ZM106.885 23.066H106.467C106.467 22.3767 106.672 21.0567 107.083 19.106C107.508 17.1553 107.721 16.048 107.721 15.784C107.721 15.3 107.516 14.7867 107.105 14.244L106.907 13.98L106.929 13.694C107.721 13.474 108.99 13.364 110.735 13.364C110.94 13.6427 111.043 14.0973 111.043 14.728C112.363 13.7453 113.412 13.254 114.189 13.254C115.172 13.254 115.751 13.76 115.927 14.772C116.323 14.4493 116.836 14.1193 117.467 13.782C118.112 13.43 118.684 13.254 119.183 13.254C119.696 13.254 120.122 13.4227 120.459 13.76C120.796 14.0827 120.965 14.5373 120.965 15.124C120.965 15.7107 120.804 16.6787 120.481 18.028C120.158 19.3773 119.997 20.2867 119.997 20.756C119.997 21.2107 120.063 21.438 120.195 21.438C120.283 21.438 120.584 21.2987 121.097 21.02L121.339 20.888L121.735 21.658C121.354 22.0393 120.833 22.406 120.173 22.758C119.528 23.0953 118.956 23.264 118.457 23.264C117.357 23.264 116.807 22.6407 116.807 21.394C116.807 20.9393 116.961 20.03 117.269 18.666C117.592 17.2873 117.753 16.3927 117.753 15.982C117.753 15.5567 117.628 15.344 117.379 15.344C116.954 15.344 116.47 15.5053 115.927 15.828C115.898 16.1213 115.692 17.1187 115.311 18.82C114.944 20.5213 114.761 21.8413 114.761 22.78C114.336 22.9707 113.338 23.066 111.769 23.066C111.74 22.9047 111.725 22.516 111.725 21.9C111.725 21.284 111.894 20.2353 112.231 18.754C112.583 17.2727 112.759 16.334 112.759 15.938C112.759 15.542 112.62 15.344 112.341 15.344C111.901 15.344 111.417 15.52 110.889 15.872C110.86 16.004 110.713 16.6493 110.449 17.808C109.921 20.1253 109.657 21.7753 109.657 22.758C109.144 22.9633 108.22 23.066 106.885 23.066ZM128.145 7.644C128.145 8.75867 127.771 10.944 127.023 14.2C127.903 13.5693 128.695 13.254 129.399 13.254C130.118 13.254 130.726 13.5547 131.225 14.156C131.738 14.7427 131.995 15.6447 131.995 16.862C131.995 18.9007 131.592 20.4773 130.785 21.592C129.993 22.7067 129.025 23.264 127.881 23.264C127.456 23.264 127.023 23.2127 126.583 23.11C126.158 23.0073 125.835 22.8973 125.615 22.78L125.285 22.626C124.346 22.9487 123.43 23.11 122.535 23.11C122.447 23.0367 122.403 22.6847 122.403 22.054C122.403 21.4087 122.814 19.2967 123.635 15.718C124.456 12.1247 124.867 9.668 124.867 8.348C124.867 8.11333 124.83 7.81267 124.757 7.446C125.901 7.05 126.994 6.852 128.035 6.852C128.108 7.05733 128.145 7.32133 128.145 7.644ZM127.947 15.124C127.668 15.124 127.25 15.256 126.693 15.52C126.018 18.3653 125.652 20.404 125.593 21.636C126.033 21.8267 126.451 21.922 126.847 21.922C127.404 21.922 127.866 21.4087 128.233 20.382C128.614 19.3553 128.805 18.226 128.805 16.994C128.805 15.7473 128.519 15.124 127.947 15.124ZM132.929 19.194C132.929 17.3607 133.479 15.916 134.579 14.86C135.694 13.7893 136.955 13.254 138.363 13.254C139.229 13.254 139.94 13.4667 140.497 13.892C141.055 14.3173 141.333 14.8893 141.333 15.608C141.333 16.312 141.15 16.906 140.783 17.39C140.431 17.874 139.999 18.248 139.485 18.512C138.444 19.0253 137.491 19.348 136.625 19.48L136.097 19.546C136.2 20.9247 136.765 21.614 137.791 21.614C138.143 21.614 138.517 21.526 138.913 21.35C139.309 21.174 139.617 20.998 139.837 20.822L140.167 20.558L140.695 21.262C140.578 21.4233 140.343 21.636 139.991 21.9C139.639 22.164 139.309 22.384 139.001 22.56C138.151 23.0293 137.219 23.264 136.207 23.264C135.195 23.264 134.396 22.9047 133.809 22.186C133.223 21.4673 132.929 20.47 132.929 19.194ZM136.075 18.468C136.823 18.336 137.417 18.0207 137.857 17.522C138.297 17.0233 138.517 16.378 138.517 15.586C138.517 14.794 138.283 14.398 137.813 14.398C137.256 14.398 136.823 14.8747 136.515 15.828C136.222 16.7667 136.075 17.6467 136.075 18.468ZM142.245 23.066H142.091C142.061 22.9487 142.047 22.6847 142.047 22.274C142.047 21.8487 142.245 20.7193 142.641 18.886C143.037 17.0527 143.235 16.004 143.235 15.74C143.235 15.2853 143.029 14.7867 142.619 14.244L142.421 13.98L142.443 13.694C143.235 13.474 144.503 13.364 146.249 13.364C146.425 13.7453 146.513 14.2807 146.513 14.97C146.674 14.706 147.011 14.354 147.525 13.914C148.038 13.474 148.566 13.254 149.109 13.254C149.901 13.254 150.297 13.9433 150.297 15.322C150.223 15.41 150.121 15.5273 149.989 15.674C149.871 15.806 149.622 15.9967 149.241 16.246C148.874 16.4953 148.515 16.6493 148.163 16.708C148.148 16.708 148.023 16.51 147.789 16.114C147.554 15.718 147.378 15.52 147.261 15.52C146.894 15.652 146.571 15.872 146.293 16.18C145.618 19.216 145.281 21.1813 145.281 22.076C145.281 22.3987 145.288 22.626 145.303 22.758C144.789 22.9633 143.77 23.066 142.245 23.066Z" fill="#EFEFF1"/>
<path d="M9.33317 22.6667L13.5998 13.6L22.6665 9.33334L18.3998 18.4L9.33317 22.6667ZM15.9998 14.8C15.6816 14.8 15.3764 14.9264 15.1513 15.1515C14.9263 15.3765 14.7998 15.6817 14.7998 16C14.7998 16.3183 14.9263 16.6235 15.1513 16.8485C15.3764 17.0736 15.6816 17.2 15.9998 17.2C16.3181 17.2 16.6233 17.0736 16.8484 16.8485C17.0734 16.6235 17.1998 16.3183 17.1998 16C17.1998 15.6817 17.0734 15.3765 16.8484 15.1515C16.6233 14.9264 16.3181 14.8 15.9998 14.8ZM15.9998 2.66667C17.7508 2.66667 19.4846 3.01155 21.1023 3.68161C22.72 4.35167 24.1898 5.3338 25.4279 6.57191C26.666 7.81003 27.6482 9.27988 28.3182 10.8976C28.9883 12.5152 29.3332 14.249 29.3332 16C29.3332 19.5362 27.9284 22.9276 25.4279 25.4281C22.9274 27.9286 19.5361 29.3333 15.9998 29.3333C14.2489 29.3333 12.5151 28.9885 10.8974 28.3184C9.27972 27.6483 7.80986 26.6662 6.57175 25.4281C4.07126 22.9276 2.6665 19.5362 2.6665 16C2.6665 12.4638 4.07126 9.0724 6.57175 6.57191C9.07223 4.07143 12.4636 2.66667 15.9998 2.66667ZM15.9998 5.33334C13.1709 5.33334 10.4578 6.45714 8.45737 8.45753C6.45698 10.4579 5.33317 13.171 5.33317 16C5.33317 18.829 6.45698 21.5421 8.45737 23.5425C10.4578 25.5429 13.1709 26.6667 15.9998 26.6667C18.8288 26.6667 21.5419 25.5429 23.5423 23.5425C25.5427 21.5421 26.6665 18.829 26.6665 16C26.6665 13.171 25.5427 10.4579 23.5423 8.45753C21.5419 6.45714 18.8288 5.33334 15.9998 5.33334Z" fill="url(#paint0_linear)"/>
<defs>
<linearGradient id="paint0_linear" x1="2.6665" y1="2.66667" x2="29.3332" y2="29.3333" gradientUnits="userSpaceOnUse">
<stop stop-color="#009EB4"/>
<stop offset="1" stop-color="#FA00FF"/>
</linearGradient>
</defs>
</svg>
