<svg width="200" height="200" viewBox="0 0 200 200" fill="none" xmlns="http://www.w3.org/2000/svg">
<path d="M58.3332 141.667L84.9998 85L141.667 58.3333L115 115L58.3332 141.667ZM99.9998 92.5C98.0107 92.5 96.1031 93.2901 94.6965 94.6967C93.29 96.1032 92.4998 98.0108 92.4998 100C92.4998 101.989 93.29 103.897 94.6965 105.303C96.1031 106.71 98.0107 107.5 99.9998 107.5C101.989 107.5 103.897 106.71 105.303 105.303C106.71 103.897 107.5 101.989 107.5 100C107.5 98.0108 106.71 96.1032 105.303 94.6967C103.897 93.2901 101.989 92.5 99.9998 92.5ZM99.9998 16.6666C110.943 16.6666 121.78 18.8221 131.89 23.01C142.001 27.1979 151.187 33.3362 158.925 41.0744C166.664 48.8126 172.802 57.9992 176.99 68.1097C181.178 78.2201 183.333 89.0565 183.333 100C183.333 122.101 174.553 143.298 158.925 158.926C143.297 174.554 122.101 183.333 99.9998 183.333C89.0564 183.333 78.22 181.178 68.1096 176.99C57.9991 172.802 48.8125 166.664 41.0743 158.926C25.4462 143.298 16.6665 122.101 16.6665 100C16.6665 77.8986 25.4462 56.7024 41.0743 41.0744C56.7023 25.4464 77.8985 16.6666 99.9998 16.6666ZM99.9998 33.3333C82.3187 33.3333 65.3618 40.3571 52.8594 52.8595C40.357 65.3619 33.3332 82.3189 33.3332 100C33.3332 117.681 40.357 134.638 52.8594 147.14C65.3618 159.643 82.3187 166.667 99.9998 166.667C117.681 166.667 134.638 159.643 147.14 147.14C159.643 134.638 166.667 117.681 166.667 100C166.667 82.3189 159.643 65.3619 147.14 52.8595C134.638 40.3571 117.681 33.3333 99.9998 33.3333Z" fill="url(#paint0_linear)"/>
<defs>
<linearGradient id="paint0_linear" x1="16.6665" y1="16.6666" x2="183.333" y2="183.333" gradientUnits="userSpaceOnUse">
<stop stop-color="#009EB4"/>
<stop offset="1" stop-color="#FA00FF"/>
<stop offset="1" stop-color="#FA00FF"/>
</linearGradient>
</defs>
</svg>
