<?xml version="1.0" standalone="no"?>
<!DOCTYPE svg PUBLIC "-//W3C//DTD SVG 20010904//EN"
 "http://www.w3.org/TR/2001/REC-SVG-20010904/DTD/svg10.dtd">
<svg version="1.0" xmlns="http://www.w3.org/2000/svg"
 width="255.000000pt" height="255.000000pt" viewBox="0 0 255.000000 255.000000"
 preserveAspectRatio="xMidYMid meet">
<metadata>
Created by potrace 1.14, written by Peter Selinger 2001-2017
</metadata>
<g transform="translate(0.000000,255.000000) scale(0.100000,-0.100000)"
fill="#000000" stroke="none">
<path d="M1105 2323 c-447 -77 -791 -413 -876 -858 -14 -76 -17 -273 -5 -345
75 -448 387 -781 831 -885 77 -18 281 -27 347 -15 24 5 61 11 83 14 57 8 189
53 260 88 354 178 580 533 589 926 7 300 -99 566 -311 778 -161 160 -358 262
-583 299 -78 13 -252 12 -335 -2z m348 -218 c308 -69 542 -286 635 -587 56
-179 44 -397 -31 -573 -128 -304 -430 -511 -756 -519 -487 -13 -889 388 -875
872 9 302 180 579 448 727 68 37 209 82 281 90 33 4 61 8 63 10 8 7 177 -7
235 -20z"/>
<path d="M1720 1767 c-36 -18 -115 -55 -175 -84 -61 -28 -172 -81 -247 -116
-75 -36 -154 -73 -176 -82 -32 -14 -44 -28 -63 -69 -23 -52 -85 -185 -157
-336 -132 -280 -152 -323 -149 -327 3 -2 52 19 111 47 220 104 314 148 405
191 173 81 194 93 211 124 14 27 41 83 178 375 24 52 66 142 93 199 27 57 49
106 49 107 0 8 -17 2 -80 -29z m-378 -427 c27 -28 30 -36 25 -73 -11 -84 -99
-116 -158 -58 -41 42 -40 92 2 132 43 40 90 40 131 -1z"/>
</g>
</svg>
